<?xml version="1.0" encoding="utf-8"?>
<svg xmlns="http://www.w3.org/2000/svg" xmlns:xlink="http://www.w3.org/1999/xlink" width="600" height="400" viewBox="0 0 2400 1600">
<defs>
  <clipPath id="clip640">
    <rect x="0" y="0" width="2400" height="1600"/>
  </clipPath>
</defs>
<path clip-path="url(#clip640)" d="
M0 1600 L2400 1600 L2400 0 L0 0  Z
  " fill="#ffffff" fill-rule="evenodd" fill-opacity="1"/>
<defs>
  <clipPath id="clip641">
    <rect x="480" y="0" width="1681" height="1600"/>
  </clipPath>
</defs>
<path clip-path="url(#clip640)" d="
M163.774 1423.18 L2352.76 1423.18 L2352.76 47.2441 L163.774 47.2441  Z
  " fill="#ffffff" fill-rule="evenodd" fill-opacity="1"/>
<defs>
  <clipPath id="clip642">
    <rect x="163" y="47" width="2190" height="1377"/>
  </clipPath>
</defs>
<polyline clip-path="url(#clip642)" style="stroke:#000000; stroke-width:2; stroke-opacity:0.1; fill:none" points="
  163.774,1423.18 163.774,47.2441 
  "/>
<polyline clip-path="url(#clip642)" style="stroke:#000000; stroke-width:2; stroke-opacity:0.1; fill:none" points="
  711.02,1423.18 711.02,47.2441 
  "/>
<polyline clip-path="url(#clip642)" style="stroke:#000000; stroke-width:2; stroke-opacity:0.1; fill:none" points="
  1258.27,1423.18 1258.27,47.2441 
  "/>
<polyline clip-path="url(#clip642)" style="stroke:#000000; stroke-width:2; stroke-opacity:0.1; fill:none" points="
  1805.51,1423.18 1805.51,47.2441 
  "/>
<polyline clip-path="url(#clip642)" style="stroke:#000000; stroke-width:2; stroke-opacity:0.1; fill:none" points="
  2352.76,1423.18 2352.76,47.2441 
  "/>
<polyline clip-path="url(#clip642)" style="stroke:#000000; stroke-width:2; stroke-opacity:0.1; fill:none" points="
  163.774,1384.24 2352.76,1384.24 
  "/>
<polyline clip-path="url(#clip642)" style="stroke:#000000; stroke-width:2; stroke-opacity:0.1; fill:none" points="
  163.774,981.356 2352.76,981.356 
  "/>
<polyline clip-path="url(#clip642)" style="stroke:#000000; stroke-width:2; stroke-opacity:0.1; fill:none" points="
  163.774,578.473 2352.76,578.473 
  "/>
<polyline clip-path="url(#clip642)" style="stroke:#000000; stroke-width:2; stroke-opacity:0.1; fill:none" points="
  163.774,175.591 2352.76,175.591 
  "/>
<polyline clip-path="url(#clip640)" style="stroke:#000000; stroke-width:4; stroke-opacity:1; fill:none" points="
  163.774,1423.18 2352.76,1423.18 
  "/>
<polyline clip-path="url(#clip640)" style="stroke:#000000; stroke-width:4; stroke-opacity:1; fill:none" points="
  163.774,1423.18 163.774,47.2441 
  "/>
<polyline clip-path="url(#clip640)" style="stroke:#000000; stroke-width:4; stroke-opacity:1; fill:none" points="
  163.774,1423.18 163.774,1406.67 
  "/>
<polyline clip-path="url(#clip640)" style="stroke:#000000; stroke-width:4; stroke-opacity:1; fill:none" points="
  711.02,1423.18 711.02,1406.67 
  "/>
<polyline clip-path="url(#clip640)" style="stroke:#000000; stroke-width:4; stroke-opacity:1; fill:none" points="
  1258.27,1423.18 1258.27,1406.67 
  "/>
<polyline clip-path="url(#clip640)" style="stroke:#000000; stroke-width:4; stroke-opacity:1; fill:none" points="
  1805.51,1423.18 1805.51,1406.67 
  "/>
<polyline clip-path="url(#clip640)" style="stroke:#000000; stroke-width:4; stroke-opacity:1; fill:none" points="
  2352.76,1423.18 2352.76,1406.67 
  "/>
<polyline clip-path="url(#clip640)" style="stroke:#000000; stroke-width:4; stroke-opacity:1; fill:none" points="
  163.774,1384.24 190.042,1384.24 
  "/>
<polyline clip-path="url(#clip640)" style="stroke:#000000; stroke-width:4; stroke-opacity:1; fill:none" points="
  163.774,981.356 190.042,981.356 
  "/>
<polyline clip-path="url(#clip640)" style="stroke:#000000; stroke-width:4; stroke-opacity:1; fill:none" points="
  163.774,578.473 190.042,578.473 
  "/>
<polyline clip-path="url(#clip640)" style="stroke:#000000; stroke-width:4; stroke-opacity:1; fill:none" points="
  163.774,175.591 190.042,175.591 
  "/>
<path clip-path="url(#clip640)" d="M 0 0 M163.774 1445.17 Q160.163 1445.17 158.334 1448.74 Q156.529 1452.28 156.529 1459.41 Q156.529 1466.51 158.334 1470.08 Q160.163 1473.62 163.774 1473.62 Q167.408 1473.62 169.214 1470.08 Q171.043 1466.51 171.043 1459.41 Q171.043 1452.28 169.214 1448.74 Q167.408 1445.17 163.774 1445.17 M163.774 1441.47 Q169.584 1441.47 172.64 1446.07 Q175.719 1450.66 175.719 1459.41 Q175.719 1468.13 172.64 1472.74 Q169.584 1477.32 163.774 1477.32 Q157.964 1477.32 154.885 1472.74 Q151.83 1468.13 151.83 1459.41 Q151.83 1450.66 154.885 1446.07 Q157.964 1441.47 163.774 1441.47 Z" fill="#000000" fill-rule="evenodd" fill-opacity="1" /><path clip-path="url(#clip640)" d="M 0 0 M701.297 1442.09 L719.654 1442.09 L719.654 1446.03 L705.58 1446.03 L705.58 1454.5 Q706.598 1454.15 707.617 1453.99 Q708.635 1453.8 709.654 1453.8 Q715.441 1453.8 718.82 1456.98 Q722.2 1460.15 722.2 1465.56 Q722.2 1471.14 718.728 1474.24 Q715.256 1477.32 708.936 1477.32 Q706.76 1477.32 704.492 1476.95 Q702.246 1476.58 699.839 1475.84 L699.839 1471.14 Q701.922 1472.28 704.145 1472.83 Q706.367 1473.39 708.844 1473.39 Q712.848 1473.39 715.186 1471.28 Q717.524 1469.18 717.524 1465.56 Q717.524 1461.95 715.186 1459.85 Q712.848 1457.74 708.844 1457.74 Q706.969 1457.74 705.094 1458.16 Q703.242 1458.57 701.297 1459.45 L701.297 1442.09 Z" fill="#000000" fill-rule="evenodd" fill-opacity="1" /><path clip-path="url(#clip640)" d="M 0 0 M1235.14 1472.72 L1242.78 1472.72 L1242.78 1446.35 L1234.47 1448.02 L1234.47 1443.76 L1242.73 1442.09 L1247.41 1442.09 L1247.41 1472.72 L1255.05 1472.72 L1255.05 1476.65 L1235.14 1476.65 L1235.14 1472.72 Z" fill="#000000" fill-rule="evenodd" fill-opacity="1" /><path clip-path="url(#clip640)" d="M 0 0 M1270.12 1445.17 Q1266.51 1445.17 1264.68 1448.74 Q1262.87 1452.28 1262.87 1459.41 Q1262.87 1466.51 1264.68 1470.08 Q1266.51 1473.62 1270.12 1473.62 Q1273.75 1473.62 1275.56 1470.08 Q1277.39 1466.51 1277.39 1459.41 Q1277.39 1452.28 1275.56 1448.74 Q1273.75 1445.17 1270.12 1445.17 M1270.12 1441.47 Q1275.93 1441.47 1278.98 1446.07 Q1282.06 1450.66 1282.06 1459.41 Q1282.06 1468.13 1278.98 1472.74 Q1275.93 1477.32 1270.12 1477.32 Q1264.31 1477.32 1261.23 1472.74 Q1258.17 1468.13 1258.17 1459.41 Q1258.17 1450.66 1261.23 1446.07 Q1264.31 1441.47 1270.12 1441.47 Z" fill="#000000" fill-rule="evenodd" fill-opacity="1" /><path clip-path="url(#clip640)" d="M 0 0 M1782.88 1472.72 L1790.52 1472.72 L1790.52 1446.35 L1782.21 1448.02 L1782.21 1443.76 L1790.48 1442.09 L1795.15 1442.09 L1795.15 1472.72 L1802.79 1472.72 L1802.79 1476.65 L1782.88 1476.65 L1782.88 1472.72 Z" fill="#000000" fill-rule="evenodd" fill-opacity="1" /><path clip-path="url(#clip640)" d="M 0 0 M1807.91 1442.09 L1826.26 1442.09 L1826.26 1446.03 L1812.19 1446.03 L1812.19 1454.5 Q1813.21 1454.15 1814.23 1453.99 Q1815.24 1453.8 1816.26 1453.8 Q1822.05 1453.8 1825.43 1456.98 Q1828.81 1460.15 1828.81 1465.56 Q1828.81 1471.14 1825.34 1474.24 Q1821.86 1477.32 1815.55 1477.32 Q1813.37 1477.32 1811.1 1476.95 Q1808.86 1476.58 1806.45 1475.84 L1806.45 1471.14 Q1808.53 1472.28 1810.75 1472.83 Q1812.98 1473.39 1815.45 1473.39 Q1819.46 1473.39 1821.8 1471.28 Q1824.13 1469.18 1824.13 1465.56 Q1824.13 1461.95 1821.8 1459.85 Q1819.46 1457.74 1815.45 1457.74 Q1813.58 1457.74 1811.7 1458.16 Q1809.85 1458.57 1807.91 1459.45 L1807.91 1442.09 Z" fill="#000000" fill-rule="evenodd" fill-opacity="1" /><path clip-path="url(#clip640)" d="M 0 0 M2333.9 1472.72 L2350.22 1472.72 L2350.22 1476.65 L2328.28 1476.65 L2328.28 1472.72 Q2330.94 1469.96 2335.52 1465.33 Q2340.13 1460.68 2341.31 1459.34 Q2343.55 1456.81 2344.43 1455.08 Q2345.34 1453.32 2345.34 1451.63 Q2345.34 1448.87 2343.39 1447.14 Q2341.47 1445.4 2338.37 1445.4 Q2336.17 1445.4 2333.72 1446.17 Q2331.29 1446.93 2328.51 1448.48 L2328.51 1443.76 Q2331.33 1442.62 2333.79 1442.05 Q2336.24 1441.47 2338.28 1441.47 Q2343.65 1441.47 2346.84 1444.15 Q2350.04 1446.84 2350.04 1451.33 Q2350.04 1453.46 2349.23 1455.38 Q2348.44 1457.28 2346.33 1459.87 Q2345.75 1460.54 2342.65 1463.76 Q2339.55 1466.95 2333.9 1472.72 Z" fill="#000000" fill-rule="evenodd" fill-opacity="1" /><path clip-path="url(#clip640)" d="M 0 0 M2365.29 1445.17 Q2361.68 1445.17 2359.85 1448.74 Q2358.05 1452.28 2358.05 1459.41 Q2358.05 1466.51 2359.85 1470.08 Q2361.68 1473.62 2365.29 1473.62 Q2368.92 1473.62 2370.73 1470.08 Q2372.56 1466.51 2372.56 1459.41 Q2372.56 1452.28 2370.73 1448.74 Q2368.92 1445.17 2365.29 1445.17 M2365.29 1441.47 Q2371.1 1441.47 2374.16 1446.07 Q2377.23 1450.66 2377.23 1459.41 Q2377.23 1468.13 2374.16 1472.74 Q2371.1 1477.32 2365.29 1477.32 Q2359.48 1477.32 2356.4 1472.74 Q2353.35 1468.13 2353.35 1459.41 Q2353.35 1450.66 2356.4 1446.07 Q2359.48 1441.47 2365.29 1441.47 Z" fill="#000000" fill-rule="evenodd" fill-opacity="1" /><path clip-path="url(#clip640)" d="M 0 0 M127.83 1370.04 Q124.219 1370.04 122.39 1373.6 Q120.584 1377.14 120.584 1384.27 Q120.584 1391.38 122.39 1394.94 Q124.219 1398.49 127.83 1398.49 Q131.464 1398.49 133.27 1394.94 Q135.098 1391.38 135.098 1384.27 Q135.098 1377.14 133.27 1373.6 Q131.464 1370.04 127.83 1370.04 M127.83 1366.33 Q133.64 1366.33 136.695 1370.94 Q139.774 1375.52 139.774 1384.27 Q139.774 1393 136.695 1397.61 Q133.64 1402.19 127.83 1402.19 Q122.02 1402.19 118.941 1397.61 Q115.885 1393 115.885 1384.27 Q115.885 1375.52 118.941 1370.94 Q122.02 1366.33 127.83 1366.33 Z" fill="#000000" fill-rule="evenodd" fill-opacity="1" /><path clip-path="url(#clip640)" d="M 0 0 M65.8393 994.701 L73.4782 994.701 L73.4782 968.335 L65.168 970.002 L65.168 965.742 L73.4319 964.076 L78.1078 964.076 L78.1078 994.701 L85.7466 994.701 L85.7466 998.636 L65.8393 998.636 L65.8393 994.701 Z" fill="#000000" fill-rule="evenodd" fill-opacity="1" /><path clip-path="url(#clip640)" d="M 0 0 M100.816 967.154 Q97.2049 967.154 95.3762 970.719 Q93.5707 974.261 93.5707 981.391 Q93.5707 988.497 95.3762 992.062 Q97.2049 995.603 100.816 995.603 Q104.45 995.603 106.256 992.062 Q108.084 988.497 108.084 981.391 Q108.084 974.261 106.256 970.719 Q104.45 967.154 100.816 967.154 M100.816 963.451 Q106.626 963.451 109.682 968.057 Q112.76 972.641 112.76 981.391 Q112.76 990.117 109.682 994.724 Q106.626 999.307 100.816 999.307 Q95.0058 999.307 91.9272 994.724 Q88.8716 990.117 88.8716 981.391 Q88.8716 972.641 91.9272 968.057 Q95.0058 963.451 100.816 963.451 Z" fill="#000000" fill-rule="evenodd" fill-opacity="1" /><path clip-path="url(#clip640)" d="M 0 0 M127.83 967.154 Q124.219 967.154 122.39 970.719 Q120.584 974.261 120.584 981.391 Q120.584 988.497 122.39 992.062 Q124.219 995.603 127.83 995.603 Q131.464 995.603 133.27 992.062 Q135.098 988.497 135.098 981.391 Q135.098 974.261 133.27 970.719 Q131.464 967.154 127.83 967.154 M127.83 963.451 Q133.64 963.451 136.695 968.057 Q139.774 972.641 139.774 981.391 Q139.774 990.117 136.695 994.724 Q133.64 999.307 127.83 999.307 Q122.02 999.307 118.941 994.724 Q115.885 990.117 115.885 981.391 Q115.885 972.641 118.941 968.057 Q122.02 963.451 127.83 963.451 Z" fill="#000000" fill-rule="evenodd" fill-opacity="1" /><path clip-path="url(#clip640)" d="M 0 0 M69.4273 591.818 L85.7466 591.818 L85.7466 595.753 L63.8023 595.753 L63.8023 591.818 Q66.4643 589.064 71.0476 584.434 Q75.6541 579.781 76.8346 578.439 Q79.08 575.915 79.9596 574.179 Q80.8624 572.42 80.8624 570.73 Q80.8624 567.976 78.918 566.24 Q76.9967 564.504 73.8948 564.504 Q71.6958 564.504 69.2421 565.267 Q66.8115 566.031 64.0338 567.582 L64.0338 562.86 Q66.8578 561.726 69.3115 561.147 Q71.7652 560.568 73.8023 560.568 Q79.1726 560.568 82.367 563.254 Q85.5614 565.939 85.5614 570.429 Q85.5614 572.559 84.7513 574.48 Q83.9642 576.378 81.8578 578.971 Q81.2791 579.642 78.1772 582.86 Q75.0754 586.054 69.4273 591.818 Z" fill="#000000" fill-rule="evenodd" fill-opacity="1" /><path clip-path="url(#clip640)" d="M 0 0 M100.816 564.272 Q97.2049 564.272 95.3762 567.837 Q93.5707 571.378 93.5707 578.508 Q93.5707 585.615 95.3762 589.179 Q97.2049 592.721 100.816 592.721 Q104.45 592.721 106.256 589.179 Q108.084 585.615 108.084 578.508 Q108.084 571.378 106.256 567.837 Q104.45 564.272 100.816 564.272 M100.816 560.568 Q106.626 560.568 109.682 565.175 Q112.76 569.758 112.76 578.508 Q112.76 587.235 109.682 591.841 Q106.626 596.425 100.816 596.425 Q95.0058 596.425 91.9272 591.841 Q88.8716 587.235 88.8716 578.508 Q88.8716 569.758 91.9272 565.175 Q95.0058 560.568 100.816 560.568 Z" fill="#000000" fill-rule="evenodd" fill-opacity="1" /><path clip-path="url(#clip640)" d="M 0 0 M127.83 564.272 Q124.219 564.272 122.39 567.837 Q120.584 571.378 120.584 578.508 Q120.584 585.615 122.39 589.179 Q124.219 592.721 127.83 592.721 Q131.464 592.721 133.27 589.179 Q135.098 585.615 135.098 578.508 Q135.098 571.378 133.27 567.837 Q131.464 564.272 127.83 564.272 M127.83 560.568 Q133.64 560.568 136.695 565.175 Q139.774 569.758 139.774 578.508 Q139.774 587.235 136.695 591.841 Q133.64 596.425 127.83 596.425 Q122.02 596.425 118.941 591.841 Q115.885 587.235 115.885 578.508 Q115.885 569.758 118.941 565.175 Q122.02 560.568 127.83 560.568 Z" fill="#000000" fill-rule="evenodd" fill-opacity="1" /><path clip-path="url(#clip640)" d="M 0 0 M78.617 174.237 Q81.9735 174.954 83.8485 177.223 Q85.7466 179.491 85.7466 182.825 Q85.7466 187.94 82.2281 190.741 Q78.7096 193.542 72.2282 193.542 Q70.0523 193.542 67.7375 193.102 Q65.4458 192.686 62.9921 191.829 L62.9921 187.315 Q64.9366 188.45 67.2514 189.028 Q69.5662 189.607 72.0893 189.607 Q76.4874 189.607 78.7791 187.871 Q81.0939 186.135 81.0939 182.825 Q81.0939 179.769 78.9411 178.056 Q76.8115 176.32 72.9921 176.32 L68.9643 176.32 L68.9643 172.477 L73.1773 172.477 Q76.6263 172.477 78.455 171.112 Q80.2837 169.723 80.2837 167.13 Q80.2837 164.468 78.3856 163.056 Q76.5106 161.621 72.9921 161.621 Q71.0708 161.621 68.8717 162.038 Q66.6727 162.454 64.0338 163.334 L64.0338 159.167 Q66.6958 158.427 69.0106 158.056 Q71.3486 157.686 73.4087 157.686 Q78.7328 157.686 81.8346 160.116 Q84.9365 162.524 84.9365 166.644 Q84.9365 169.515 83.2929 171.505 Q81.6494 173.473 78.617 174.237 Z" fill="#000000" fill-rule="evenodd" fill-opacity="1" /><path clip-path="url(#clip640)" d="M 0 0 M100.816 161.39 Q97.2049 161.39 95.3762 164.954 Q93.5707 168.496 93.5707 175.626 Q93.5707 182.732 95.3762 186.297 Q97.2049 189.838 100.816 189.838 Q104.45 189.838 106.256 186.297 Q108.084 182.732 108.084 175.626 Q108.084 168.496 106.256 164.954 Q104.45 161.39 100.816 161.39 M100.816 157.686 Q106.626 157.686 109.682 162.292 Q112.76 166.876 112.76 175.626 Q112.76 184.352 109.682 188.959 Q106.626 193.542 100.816 193.542 Q95.0058 193.542 91.9272 188.959 Q88.8716 184.352 88.8716 175.626 Q88.8716 166.876 91.9272 162.292 Q95.0058 157.686 100.816 157.686 Z" fill="#000000" fill-rule="evenodd" fill-opacity="1" /><path clip-path="url(#clip640)" d="M 0 0 M127.83 161.39 Q124.219 161.39 122.39 164.954 Q120.584 168.496 120.584 175.626 Q120.584 182.732 122.39 186.297 Q124.219 189.838 127.83 189.838 Q131.464 189.838 133.27 186.297 Q135.098 182.732 135.098 175.626 Q135.098 168.496 133.27 164.954 Q131.464 161.39 127.83 161.39 M127.83 157.686 Q133.64 157.686 136.695 162.292 Q139.774 166.876 139.774 175.626 Q139.774 184.352 136.695 188.959 Q133.64 193.542 127.83 193.542 Q122.02 193.542 118.941 188.959 Q115.885 184.352 115.885 175.626 Q115.885 166.876 118.941 162.292 Q122.02 157.686 127.83 157.686 Z" fill="#000000" fill-rule="evenodd" fill-opacity="1" /><path clip-path="url(#clip640)" d="M 0 0 M1100.4 1510.27 L1100.4 1520.4 L1112.46 1520.4 L1112.46 1524.95 L1100.4 1524.95 L1100.4 1544.3 Q1100.4 1548.66 1101.57 1549.9 Q1102.78 1551.14 1106.44 1551.14 L1112.46 1551.14 L1112.46 1556.04 L1106.44 1556.04 Q1099.66 1556.04 1097.09 1553.53 Q1094.51 1550.98 1094.51 1544.3 L1094.51 1524.95 L1090.21 1524.95 L1090.21 1520.4 L1094.51 1520.4 L1094.51 1510.27 L1100.4 1510.27 Z" fill="#000000" fill-rule="evenodd" fill-opacity="1" /><path clip-path="url(#clip640)" d="M 0 0 M1118.6 1520.4 L1124.46 1520.4 L1124.46 1556.04 L1118.6 1556.04 L1118.6 1520.4 M1118.6 1506.52 L1124.46 1506.52 L1124.46 1513.93 L1118.6 1513.93 L1118.6 1506.52 Z" fill="#000000" fill-rule="evenodd" fill-opacity="1" /><path clip-path="url(#clip640)" d="M 0 0 M1158.36 1527.24 Q1160.55 1523.29 1163.61 1521.41 Q1166.66 1519.54 1170.8 1519.54 Q1176.37 1519.54 1179.39 1523.45 Q1182.42 1527.33 1182.42 1534.53 L1182.42 1556.04 L1176.53 1556.04 L1176.53 1534.72 Q1176.53 1529.59 1174.72 1527.11 Q1172.9 1524.63 1169.18 1524.63 Q1164.63 1524.63 1161.98 1527.65 Q1159.34 1530.68 1159.34 1535.9 L1159.34 1556.04 L1153.45 1556.04 L1153.45 1534.72 Q1153.45 1529.56 1151.64 1527.11 Q1149.83 1524.63 1146.04 1524.63 Q1141.55 1524.63 1138.91 1527.68 Q1136.27 1530.71 1136.27 1535.9 L1136.27 1556.04 L1130.38 1556.04 L1130.38 1520.4 L1136.27 1520.4 L1136.27 1525.93 Q1138.27 1522.66 1141.07 1521.1 Q1143.87 1519.54 1147.72 1519.54 Q1151.61 1519.54 1154.31 1521.51 Q1157.05 1523.48 1158.36 1527.24 Z" fill="#000000" fill-rule="evenodd" fill-opacity="1" /><path clip-path="url(#clip640)" d="M 0 0 M1219.05 1536.76 L1219.05 1539.62 L1192.13 1539.62 Q1192.51 1545.67 1195.75 1548.85 Q1199.03 1552 1204.86 1552 Q1208.23 1552 1211.38 1551.17 Q1214.56 1550.35 1217.68 1548.69 L1217.68 1554.23 Q1214.53 1555.57 1211.22 1556.27 Q1207.91 1556.97 1204.51 1556.97 Q1195.98 1556.97 1190.98 1552 Q1186.01 1547.04 1186.01 1538.57 Q1186.01 1529.82 1190.72 1524.69 Q1195.47 1519.54 1203.49 1519.54 Q1210.68 1519.54 1214.85 1524.18 Q1219.05 1528.8 1219.05 1536.76 M1213.2 1535.04 Q1213.13 1530.23 1210.49 1527.37 Q1207.88 1524.5 1203.55 1524.5 Q1198.65 1524.5 1195.69 1527.27 Q1192.76 1530.04 1192.32 1535.07 L1213.2 1535.04 Z" fill="#000000" fill-rule="evenodd" fill-opacity="1" /><path clip-path="url(#clip640)" d="M 0 0 M1261.8 1565.62 L1258.62 1565.62 L1258.58 1556.04 Q1255.24 1555.98 1251.9 1555.28 Q1248.56 1554.55 1245.18 1553.12 L1245.18 1547.39 Q1248.43 1549.42 1251.74 1550.47 Q1255.08 1551.49 1258.62 1551.52 L1258.62 1537.01 Q1251.58 1535.86 1248.37 1533.13 Q1245.18 1530.39 1245.18 1525.62 Q1245.18 1520.43 1248.65 1517.44 Q1252.12 1514.44 1258.62 1514 L1258.62 1506.52 L1261.8 1506.52 L1261.8 1513.9 Q1264.76 1514.03 1267.53 1514.54 Q1270.3 1515.02 1272.94 1515.88 L1272.94 1521.45 Q1270.3 1520.11 1267.5 1519.38 Q1264.73 1518.65 1261.8 1518.52 L1261.8 1532.11 Q1269.02 1533.22 1272.43 1536.09 Q1275.83 1538.95 1275.83 1543.92 Q1275.83 1549.3 1272.21 1552.42 Q1268.61 1555.5 1261.8 1555.98 L1261.8 1565.62 M1258.62 1531.54 L1258.62 1518.49 Q1254.92 1518.9 1252.98 1520.59 Q1251.04 1522.27 1251.04 1525.07 Q1251.04 1527.81 1252.82 1529.34 Q1254.64 1530.87 1258.62 1531.54 M1261.8 1537.65 L1261.8 1551.43 Q1265.84 1550.89 1267.88 1549.14 Q1269.95 1547.39 1269.95 1544.52 Q1269.95 1541.72 1267.97 1540.07 Q1266.03 1538.41 1261.8 1537.65 Z" fill="#000000" fill-rule="evenodd" fill-opacity="1" /><path clip-path="url(#clip640)" d="M 0 0 M1287.77 1510.27 L1287.77 1520.4 L1299.83 1520.4 L1299.83 1524.95 L1287.77 1524.95 L1287.77 1544.3 Q1287.77 1548.66 1288.95 1549.9 Q1290.16 1551.14 1293.82 1551.14 L1299.83 1551.14 L1299.83 1556.04 L1293.82 1556.04 Q1287.04 1556.04 1284.46 1553.53 Q1281.88 1550.98 1281.88 1544.3 L1281.88 1524.95 L1277.58 1524.95 L1277.58 1520.4 L1281.88 1520.4 L1281.88 1510.27 L1287.77 1510.27 Z" fill="#000000" fill-rule="evenodd" fill-opacity="1" /><path clip-path="url(#clip640)" d="M 0 0 M1321.86 1565.62 L1318.68 1565.62 L1318.64 1556.04 Q1315.3 1555.98 1311.96 1555.28 Q1308.62 1554.55 1305.24 1553.12 L1305.24 1547.39 Q1308.49 1549.42 1311.8 1550.47 Q1315.14 1551.49 1318.68 1551.52 L1318.68 1537.01 Q1311.64 1535.86 1308.43 1533.13 Q1305.24 1530.39 1305.24 1525.62 Q1305.24 1520.43 1308.71 1517.44 Q1312.18 1514.44 1318.68 1514 L1318.68 1506.52 L1321.86 1506.52 L1321.86 1513.9 Q1324.82 1514.03 1327.59 1514.54 Q1330.36 1515.02 1333 1515.88 L1333 1521.45 Q1330.36 1520.11 1327.56 1519.38 Q1324.79 1518.65 1321.86 1518.52 L1321.86 1532.11 Q1329.08 1533.22 1332.49 1536.09 Q1335.89 1538.95 1335.89 1543.92 Q1335.89 1549.3 1332.27 1552.42 Q1328.67 1555.5 1321.86 1555.98 L1321.86 1565.62 M1318.68 1531.54 L1318.68 1518.49 Q1314.98 1518.9 1313.04 1520.59 Q1311.1 1522.27 1311.1 1525.07 Q1311.1 1527.81 1312.88 1529.34 Q1314.7 1530.87 1318.68 1531.54 M1321.86 1537.65 L1321.86 1551.43 Q1325.9 1550.89 1327.94 1549.14 Q1330.01 1547.39 1330.01 1544.52 Q1330.01 1541.72 1328.03 1540.07 Q1326.09 1538.41 1321.86 1537.65 Z" fill="#000000" fill-rule="evenodd" fill-opacity="1" /><path clip-path="url(#clip640)" d="M 0 0 M1362.22 1506.52 L1375.71 1506.52 L1375.71 1511.07 L1368.07 1511.07 L1368.07 1560.09 L1375.71 1560.09 L1375.71 1564.64 L1362.22 1564.64 L1362.22 1506.52 Z" fill="#000000" fill-rule="evenodd" fill-opacity="1" /><path clip-path="url(#clip640)" d="M 0 0 M1404.58 1521.45 L1404.58 1526.98 Q1402.1 1525.71 1399.42 1525.07 Q1396.75 1524.44 1393.89 1524.44 Q1389.53 1524.44 1387.33 1525.77 Q1385.17 1527.11 1385.17 1529.79 Q1385.17 1531.82 1386.72 1533 Q1388.28 1534.15 1393 1535.2 L1395 1535.64 Q1401.24 1536.98 1403.85 1539.43 Q1406.49 1541.85 1406.49 1546.21 Q1406.49 1551.17 1402.54 1554.07 Q1398.63 1556.97 1391.75 1556.97 Q1388.89 1556.97 1385.77 1556.39 Q1382.68 1555.85 1379.25 1554.74 L1379.25 1548.69 Q1382.49 1550.38 1385.64 1551.24 Q1388.79 1552.07 1391.88 1552.07 Q1396.02 1552.07 1398.25 1550.66 Q1400.47 1549.23 1400.47 1546.65 Q1400.47 1544.27 1398.85 1542.99 Q1397.26 1541.72 1391.82 1540.54 L1389.78 1540.07 Q1384.34 1538.92 1381.92 1536.56 Q1379.5 1534.18 1379.5 1530.04 Q1379.5 1525.01 1383.06 1522.27 Q1386.63 1519.54 1393.19 1519.54 Q1396.43 1519.54 1399.3 1520.01 Q1402.16 1520.49 1404.58 1521.45 Z" fill="#000000" fill-rule="evenodd" fill-opacity="1" /><path clip-path="url(#clip640)" d="M 0 0 M1426.32 1506.52 L1426.32 1564.64 L1412.82 1564.64 L1412.82 1560.09 L1420.43 1560.09 L1420.43 1511.07 L1412.82 1511.07 L1412.82 1506.52 L1426.32 1506.52 Z" fill="#000000" fill-rule="evenodd" fill-opacity="1" /><polyline clip-path="url(#clip642)" style="stroke:#0000ff; stroke-width:10; stroke-opacity:1; fill:none" points="
  163.774,1021.64 165.397,1021.94 167.019,1022.16 168.642,1022.29 170.265,1022.34 171.887,1022.31 173.51,1022.19 175.133,1022 176.755,1021.73 178.378,1021.38 
  180.001,1020.94 181.623,1020.44 183.246,1019.85 184.869,1019.18 186.492,1018.44 188.114,1017.62 189.737,1016.72 191.36,1015.74 192.982,1014.68 194.605,1013.55 
  196.228,1012.33 197.85,1011.04 199.473,1009.66 201.096,1008.21 202.718,1006.67 204.341,1005.05 205.964,1003.34 207.586,1001.55 209.209,999.68 210.832,997.719 
  212.454,995.67 214.077,993.533 215.7,991.305 217.322,988.986 218.945,986.574 220.568,984.067 222.19,981.463 223.813,978.763 225.436,975.962 227.058,973.06 
  228.681,970.056 230.304,966.946 231.926,963.729 233.549,960.404 235.172,956.967 236.794,953.418 238.417,949.753 240.04,945.971 241.662,942.069 243.285,938.045 
  244.908,933.896 246.53,929.621 248.153,925.217 249.776,920.681 251.398,916.012 253.021,911.206 254.644,906.261 256.266,901.175 257.889,895.945 259.512,890.568 
  261.134,885.043 262.757,879.367 264.38,873.538 266.002,867.553 267.625,861.409 269.248,855.106 270.87,848.641 272.493,842.011 274.116,835.215 275.738,828.252 
  277.361,821.119 278.984,813.815 280.606,806.34 282.229,798.691 283.852,790.868 285.474,782.871 287.097,774.698 288.72,766.351 290.342,757.829 291.965,749.132 
  293.588,740.263 295.21,731.221 296.833,722.008 298.456,712.627 300.078,703.079 301.701,693.368 303.324,683.496 304.946,673.468 306.569,663.288 308.192,652.96 
  309.814,642.489 311.437,631.881 313.06,621.143 314.682,610.28 316.305,599.301 317.928,588.212 319.55,577.022 321.173,565.74 322.796,554.374 324.418,542.933 
  326.041,531.429 327.664,519.871 329.286,508.27 330.909,496.637 332.532,484.983 334.154,473.32 335.777,461.659 337.4,450.013 339.022,438.393 340.645,426.812 
  342.268,415.281 343.89,403.814 345.513,392.421 347.136,381.115 348.758,369.907 350.381,358.81 352.004,347.835 353.627,336.992 355.249,326.292 356.872,315.747 
  358.495,305.365 360.117,295.157 361.74,285.132 363.363,275.298 364.985,265.664 366.608,256.239 368.231,247.028 369.853,238.039 371.476,229.278 373.099,220.752 
  374.721,212.466 376.344,204.424 377.967,196.632 379.589,189.093 381.212,181.81 382.835,174.788 384.457,168.028 386.08,161.534 387.703,155.307 389.325,149.348 
  390.948,143.66 392.571,138.242 394.193,133.096 395.816,128.222 397.439,123.621 399.061,119.291 400.684,115.233 402.307,111.446 403.929,107.93 405.552,104.683 
  407.175,101.704 408.797,98.9919 410.42,96.5455 412.043,94.363 413.665,92.4429 415.288,90.7833 416.911,89.3825 418.533,88.2383 420.156,87.3487 421.779,86.7115 
  423.401,86.3246 425.024,86.1857 426.647,86.2923 428.269,86.6421 429.892,87.2325 431.515,88.061 433.137,89.125 434.76,90.4217 436.383,91.9483 438.005,93.702 
  439.628,95.68 441.251,97.8792 442.873,100.296 444.496,102.929 446.119,105.773 447.741,108.825 449.364,112.082 450.987,115.54 452.609,119.196 454.232,123.046 
  455.855,127.086 457.477,131.311 459.1,135.719 460.723,140.303 462.345,145.061 463.968,149.986 465.591,155.075 467.213,160.323 468.836,165.724 470.459,171.274 
  472.081,176.966 473.704,182.795 475.327,188.755 476.949,194.841 478.572,201.046 480.195,207.365 481.817,213.79 483.44,220.315 485.063,226.933 486.685,233.638 
  488.308,240.423 489.931,247.279 491.553,254.201 493.176,261.18 494.799,268.21 496.421,275.282 498.044,282.389 499.667,289.524 501.289,296.678 502.912,303.844 
  504.535,311.014 506.157,318.18 507.78,325.335 509.403,332.471 511.025,339.58 512.648,346.654 514.271,353.686 515.894,360.669 517.516,367.595 519.139,374.456 
  520.762,381.247 522.384,387.96 524.007,394.588 525.63,401.124 527.252,407.563 528.875,413.898 530.498,420.123 532.12,426.232 533.743,432.22 535.366,438.081 
  536.988,443.811 538.611,449.404 540.234,454.856 541.856,460.163 543.479,465.32 545.102,470.324 546.724,475.171 548.347,479.857 549.97,484.38 551.592,488.736 
  553.215,492.923 554.838,496.938 556.46,500.78 558.083,504.446 559.706,507.934 561.328,511.244 562.951,514.373 564.574,517.321 566.196,520.086 567.819,522.669 
  569.442,525.067 571.064,527.282 572.687,529.313 574.31,531.16 575.932,532.824 577.555,534.303 579.178,535.6 580.8,536.715 582.423,537.648 584.046,538.401 
  585.668,538.974 587.291,539.37 588.914,539.589 590.536,539.632 592.159,539.503 593.782,539.202 595.404,538.731 597.027,538.092 598.65,537.289 600.272,536.321 
  601.895,535.194 603.518,533.908 605.14,532.466 606.763,530.871 608.386,529.127 610.008,527.236 611.631,525.2 613.254,523.024 614.876,520.71 616.499,518.263 
  618.122,515.685 619.744,512.979 621.367,510.151 622.99,507.203 624.612,504.14 626.235,500.965 627.858,497.683 629.48,494.297 631.103,490.812 632.726,487.233 
  634.348,483.563 635.971,479.808 637.594,475.972 639.216,472.058 640.839,468.073 642.462,464.021 644.084,459.907 645.707,455.735 647.33,451.511 648.952,447.239 
  650.575,442.925 652.198,438.573 653.82,434.188 655.443,429.776 657.066,425.342 658.688,420.89 660.311,416.426 661.934,411.954 663.556,407.48 665.179,403.009 
  666.802,398.545 668.424,394.093 670.047,389.659 671.67,385.247 673.292,380.862 674.915,376.508 676.538,372.19 678.161,367.912 679.783,363.68 681.406,359.496 
  683.029,355.366 684.651,351.294 686.274,347.283 687.897,343.337 689.519,339.46 691.142,335.657 692.765,331.929 694.387,328.281 696.01,324.716 697.633,321.238 
  699.255,317.848 700.878,314.55 702.501,311.346 704.123,308.24 705.746,305.233 707.369,302.328 708.991,299.527 710.614,296.832 712.237,294.244 713.859,291.766 
  715.482,289.399 717.105,287.144 718.727,285.004 720.35,282.978 721.973,281.067 723.595,279.274 725.218,277.597 726.841,276.039 728.463,274.599 730.086,273.278 
  731.709,272.076 733.331,270.993 734.954,270.029 736.577,269.184 738.199,268.457 739.822,267.848 741.445,267.357 743.067,266.983 744.69,266.725 746.313,266.582 
  747.935,266.553 749.558,266.637 751.181,266.834 752.803,267.141 754.426,267.558 756.049,268.082 757.671,268.713 759.294,269.448 760.917,270.286 762.539,271.224 
  764.162,272.262 765.785,273.397 767.407,274.627 769.03,275.949 770.653,277.362 772.275,278.863 773.898,280.45 775.521,282.12 777.143,283.87 778.766,285.699 
  780.389,287.603 782.011,289.579 783.634,291.626 785.257,293.739 786.879,295.917 788.502,298.155 790.125,300.452 791.747,302.805 793.37,305.209 794.993,307.662 
  796.615,310.161 798.238,312.704 799.861,315.285 801.483,317.903 803.106,320.554 804.729,323.236 806.351,325.943 807.974,328.675 809.597,331.427 811.219,334.195 
  812.842,336.978 814.465,339.771 816.087,342.571 817.71,345.376 819.333,348.181 820.955,350.985 822.578,353.783 824.201,356.573 825.823,359.351 827.446,362.116 
  829.069,364.863 830.691,367.589 832.314,370.293 833.937,372.971 835.559,375.62 837.182,378.238 838.805,380.821 840.427,383.369 842.05,385.877 843.673,388.344 
  845.296,390.767 846.918,393.144 848.541,395.473 850.164,397.751 851.786,399.977 853.409,402.148 855.032,404.263 856.654,406.32 858.277,408.317 859.9,410.253 
  861.522,412.125 863.145,413.934 864.768,415.676 866.39,417.352 868.013,418.959 869.636,420.496 871.258,421.964 872.881,423.36 874.504,424.684 876.126,425.935 
  877.749,427.112 879.372,428.215 880.994,429.244 882.617,430.198 884.24,431.077 885.862,431.88 887.485,432.607 889.108,433.259 890.73,433.835 892.353,434.336 
  893.976,434.761 895.598,435.112 897.221,435.387 898.844,435.589 900.466,435.716 902.089,435.771 903.712,435.753 905.334,435.663 906.957,435.502 908.58,435.271 
  910.202,434.971 911.825,434.603 913.448,434.167 915.07,433.666 916.693,433.099 918.316,432.47 919.938,431.777 921.561,431.024 923.184,430.212 924.806,429.341 
  926.429,428.414 928.052,427.432 929.674,426.396 931.297,425.309 932.92,424.172 934.542,422.986 936.165,421.754 937.788,420.477 939.41,419.157 941.033,417.797 
  942.656,416.397 944.278,414.959 945.901,413.487 947.524,411.981 949.146,410.444 950.769,408.878 952.392,407.284 954.014,405.665 955.637,404.023 957.26,402.359 
  958.882,400.676 960.505,398.977 962.128,397.262 963.75,395.534 965.373,393.796 966.996,392.048 968.618,390.294 970.241,388.535 971.864,386.773 973.486,385.01 
  975.109,383.249 976.732,381.49 978.354,379.737 979.977,377.991 981.6,376.253 983.222,374.527 984.845,372.813 986.468,371.113 988.09,369.43 989.713,367.764 
  991.336,366.118 992.958,364.493 994.581,362.891 996.204,361.313 997.826,359.762 999.449,358.237 1001.07,356.742 1002.69,355.277 1004.32,353.843 1005.94,352.443 
  1007.56,351.076 1009.19,349.745 1010.81,348.451 1012.43,347.194 1014.05,345.975 1015.68,344.796 1017.3,343.658 1018.92,342.561 1020.54,341.506 1022.17,340.494 
  1023.79,339.526 1025.41,338.603 1027.03,337.724 1028.66,336.89 1030.28,336.103 1031.9,335.362 1033.53,334.667 1035.15,334.02 1036.77,333.42 1038.39,332.868 
  1040.02,332.363 1041.64,331.906 1043.26,331.496 1044.88,331.135 1046.51,330.821 1048.13,330.555 1049.75,330.336 1051.37,330.164 1053,330.04 1054.62,329.962 
  1056.24,329.93 1057.87,329.944 1059.49,330.003 1061.11,330.107 1062.73,330.256 1064.36,330.448 1065.98,330.683 1067.6,330.961 1069.22,331.28 1070.85,331.641 
  1072.47,332.041 1074.09,332.481 1075.71,332.959 1077.34,333.474 1078.96,334.026 1080.58,334.614 1082.21,335.236 1083.83,335.892 1085.45,336.581 1087.07,337.301 
  1088.7,338.051 1090.32,338.83 1091.94,339.638 1093.56,340.472 1095.19,341.332 1096.81,342.216 1098.43,343.124 1100.05,344.054 1101.68,345.005 1103.3,345.975 
  1104.92,346.963 1106.55,347.968 1108.17,348.989 1109.79,350.025 1111.41,351.073 1113.04,352.133 1114.66,353.204 1116.28,354.284 1117.9,355.372 1119.53,356.466 
  1121.15,357.566 1122.77,358.67 1124.39,359.776 1126.02,360.884 1127.64,361.992 1129.26,363.099 1130.89,364.204 1132.51,365.306 1134.13,366.402 1135.75,367.493 
  1137.38,368.577 1139,369.653 1140.62,370.72 1142.24,371.776 1143.87,372.82 1145.49,373.852 1147.11,374.871 1148.73,375.875 1150.36,376.863 1151.98,377.835 
  1153.6,378.789 1155.23,379.725 1156.85,380.642 1158.47,381.539 1160.09,382.415 1161.72,383.269 1163.34,384.101 1164.96,384.91 1166.58,385.694 1168.21,386.455 
  1169.83,387.19 1171.45,387.9 1173.07,388.584 1174.7,389.241 1176.32,389.871 1177.94,390.473 1179.57,391.047 1181.19,391.593 1182.81,392.111 1184.43,392.599 
  1186.06,393.058 1187.68,393.487 1189.3,393.887 1190.92,394.257 1192.55,394.597 1194.17,394.907 1195.79,395.187 1197.41,395.437 1199.04,395.657 1200.66,395.846 
  1202.28,396.006 1203.91,396.136 1205.53,396.236 1207.15,396.307 1208.77,396.348 1210.4,396.36 1212.02,396.344 1213.64,396.299 1215.26,396.225 1216.89,396.124 
  1218.51,395.996 1220.13,395.84 1221.75,395.658 1223.38,395.45 1225,395.216 1226.62,394.957 1228.25,394.673 1229.87,394.365 1231.49,394.034 1233.11,393.68 
  1234.74,393.304 1236.36,392.906 1237.98,392.487 1239.6,392.048 1241.23,391.59 1242.85,391.112 1244.47,390.616 1246.09,390.103 1247.72,389.573 1249.34,389.027 
  1250.96,388.466 1252.59,387.891 1254.21,387.302 1255.83,386.7 1257.45,386.086 1259.08,385.461 1260.7,384.825 1262.32,384.18 1263.94,383.526 1265.57,382.864 
  1267.19,382.195 1268.81,381.52 1270.44,380.839 1272.06,380.154 1273.68,379.464 1275.3,378.772 1276.93,378.077 1278.55,377.381 1280.17,376.684 1281.79,375.987 
  1283.42,375.291 1285.04,374.597 1286.66,373.905 1288.28,373.216 1289.91,372.532 1291.53,371.852 1293.15,371.177 1294.78,370.508 1296.4,369.846 1298.02,369.192 
  1299.64,368.546 1301.27,367.908 1302.89,367.28 1304.51,366.662 1306.13,366.054 1307.76,365.458 1309.38,364.873 1311,364.301 1312.62,363.741 1314.25,363.195 
  1315.87,362.662 1317.49,362.144 1319.12,361.64 1320.74,361.152 1322.36,360.679 1323.98,360.222 1325.61,359.781 1327.23,359.356 1328.85,358.949 1330.47,358.559 
  1332.1,358.186 1333.72,357.831 1335.34,357.493 1336.96,357.174 1338.59,356.874 1340.21,356.591 1341.83,356.327 1343.46,356.082 1345.08,355.856 1346.7,355.649 
  1348.32,355.46 1349.95,355.291 1351.57,355.14 1353.19,355.009 1354.81,354.896 1356.44,354.802 1358.06,354.727 1359.68,354.671 1361.3,354.633 1362.93,354.613 
  1364.55,354.612 1366.17,354.629 1367.8,354.663 1369.42,354.716 1371.04,354.785 1372.66,354.872 1374.29,354.976 1375.91,355.097 1377.53,355.234 1379.15,355.387 
  1380.78,355.555 1382.4,355.739 1384.02,355.938 1385.64,356.152 1387.27,356.379 1388.89,356.621 1390.51,356.876 1392.14,357.144 1393.76,357.425 1395.38,357.718 
  1397,358.023 1398.63,358.339 1400.25,358.665 1401.87,359.003 1403.49,359.349 1405.12,359.706 1406.74,360.071 1408.36,360.445 1409.98,360.826 1411.61,361.215 
  1413.23,361.611 1414.85,362.013 1416.48,362.42 1418.1,362.834 1419.72,363.252 1421.34,363.674 1422.97,364.1 1424.59,364.53 1426.21,364.962 1427.83,365.396 
  1429.46,365.833 1431.08,366.27 1432.7,366.708 1434.32,367.146 1435.95,367.585 1437.57,368.022 1439.19,368.458 1440.82,368.892 1442.44,369.325 1444.06,369.754 
  1445.68,370.181 1447.31,370.604 1448.93,371.023 1450.55,371.437 1452.17,371.847 1453.8,372.251 1455.42,372.65 1457.04,373.043 1458.66,373.429 1460.29,373.809 
  1461.91,374.181 1463.53,374.546 1465.16,374.903 1466.78,375.252 1468.4,375.592 1470.02,375.924 1471.65,376.246 1473.27,376.559 1474.89,376.863 1476.51,377.157 
  1478.14,377.441 1479.76,377.714 1481.38,377.977 1483,378.229 1484.63,378.47 1486.25,378.701 1487.87,378.92 1489.5,379.127 1491.12,379.324 1492.74,379.509 
  1494.36,379.682 1495.99,379.843 1497.61,379.993 1499.23,380.13 1500.85,380.256 1502.48,380.37 1504.1,380.472 1505.72,380.562 1507.34,380.641 1508.97,380.707 
  1510.59,380.761 1512.21,380.804 1513.84,380.835 1515.46,380.855 1517.08,380.862 1518.7,380.859 1520.33,380.844 1521.95,380.818 1523.57,380.78 1525.19,380.732 
  1526.82,380.674 1528.44,380.604 1530.06,380.524 1531.68,380.434 1533.31,380.334 1534.93,380.224 1536.55,380.105 1538.18,379.976 1539.8,379.838 1541.42,379.692 
  1543.04,379.536 1544.67,379.372 1546.29,379.201 1547.91,379.021 1549.53,378.834 1551.16,378.639 1552.78,378.438 1554.4,378.23 1556.02,378.015 1557.65,377.795 
  1559.27,377.568 1560.89,377.337 1562.52,377.1 1564.14,376.858 1565.76,376.611 1567.38,376.361 1569.01,376.107 1570.63,375.849 1572.25,375.587 1573.87,375.323 
  1575.5,375.057 1577.12,374.788 1578.74,374.517 1580.37,374.245 1581.99,373.971 1583.61,373.696 1585.23,373.421 1586.86,373.145 1588.48,372.869 1590.1,372.594 
  1591.72,372.319 1593.35,372.045 1594.97,371.772 1596.59,371.501 1598.21,371.232 1599.84,370.964 1601.46,370.699 1603.08,370.437 1604.71,370.177 1606.33,369.921 
  1607.95,369.668 1609.57,369.419 1611.2,369.173 1612.82,368.932 1614.44,368.695 1616.06,368.462 1617.69,368.235 1619.31,368.012 1620.93,367.795 1622.55,367.583 
  1624.18,367.377 1625.8,367.176 1627.42,366.982 1629.05,366.793 1630.67,366.611 1632.29,366.435 1633.91,366.266 1635.54,366.103 1637.16,365.947 1638.78,365.798 
  1640.4,365.656 1642.03,365.521 1643.65,365.393 1645.27,365.272 1646.89,365.159 1648.52,365.053 1650.14,364.955 1651.76,364.863 1653.39,364.78 1655.01,364.704 
  1656.63,364.635 1658.25,364.574 1659.88,364.52 1661.5,364.474 1663.12,364.435 1664.74,364.404 1666.37,364.38 1667.99,364.363 1669.61,364.354 1671.23,364.352 
  1672.86,364.357 1674.48,364.369 1676.1,364.389 1677.73,364.415 1679.35,364.448 1680.97,364.487 1682.59,364.534 1684.22,364.586 1685.84,364.646 1687.46,364.711 
  1689.08,364.783 1690.71,364.86 1692.33,364.943 1693.95,365.032 1695.57,365.127 1697.2,365.227 1698.82,365.332 1700.44,365.442 1702.07,365.557 1703.69,365.676 
  1705.31,365.8 1706.93,365.929 1708.56,366.061 1710.18,366.198 1711.8,366.338 1713.42,366.482 1715.05,366.629 1716.67,366.779 1718.29,366.933 1719.91,367.089 
  1721.54,367.247 1723.16,367.408 1724.78,367.571 1726.41,367.736 1728.03,367.903 1729.65,368.071 1731.27,368.241 1732.9,368.412 1734.52,368.584 1736.14,368.756 
  1737.76,368.929 1739.39,369.102 1741.01,369.276 1742.63,369.449 1744.25,369.622 1745.88,369.795 1747.5,369.967 1749.12,370.138 1750.75,370.308 1752.37,370.477 
  1753.99,370.645 1755.61,370.811 1757.24,370.975 1758.86,371.138 1760.48,371.298 1762.1,371.457 1763.73,371.612 1765.35,371.766 1766.97,371.916 1768.59,372.064 
  1770.22,372.209 1771.84,372.351 1773.46,372.49 1775.09,372.625 1776.71,372.757 1778.33,372.885 1779.95,373.01 1781.58,373.131 1783.2,373.248 1784.82,373.361 
  1786.44,373.47 1788.07,373.575 1789.69,373.675 1791.31,373.772 1792.93,373.864 1794.56,373.951 1796.18,374.034 1797.8,374.113 1799.43,374.187 1801.05,374.256 
  1802.67,374.321 1804.29,374.381 1805.92,374.437 1807.54,374.487 1809.16,374.533 1810.78,374.575 1812.41,374.611 1814.03,374.643 1815.65,374.67 1817.27,374.693 
  1818.9,374.711 1820.52,374.724 1822.14,374.732 1823.77,374.736 1825.39,374.736 1827.01,374.731 1828.63,374.721 1830.26,374.707 1831.88,374.689 1833.5,374.667 
  1835.12,374.64 1836.75,374.609 1838.37,374.574 1839.99,374.536 1841.61,374.493 1843.24,374.446 1844.86,374.396 1846.48,374.342 1848.11,374.285 1849.73,374.224 
  1851.35,374.16 1852.97,374.093 1854.6,374.022 1856.22,373.949 1857.84,373.872 1859.46,373.793 1861.09,373.711 1862.71,373.627 1864.33,373.54 1865.95,373.451 
  1867.58,373.359 1869.2,373.266 1870.82,373.171 1872.45,373.074 1874.07,372.975 1875.69,372.874 1877.31,372.773 1878.94,372.67 1880.56,372.565 1882.18,372.46 
  1883.8,372.354 1885.43,372.247 1887.05,372.139 1888.67,372.031 1890.29,371.922 1891.92,371.813 1893.54,371.704 1895.16,371.595 1896.79,371.486 1898.41,371.377 
  1900.03,371.269 1901.65,371.161 1903.28,371.053 1904.9,370.947 1906.52,370.841 1908.14,370.736 1909.77,370.632 1911.39,370.529 1913.01,370.427 1914.64,370.327 
  1916.26,370.228 1917.88,370.13 1919.5,370.035 1921.13,369.94 1922.75,369.848 1924.37,369.758 1925.99,369.669 1927.62,369.583 1929.24,369.499 1930.86,369.417 
  1932.48,369.337 1934.11,369.259 1935.73,369.184 1937.35,369.112 1938.98,369.042 1940.6,368.974 1942.22,368.909 1943.84,368.847 1945.47,368.788 1947.09,368.731 
  1948.71,368.677 1950.33,368.626 1951.96,368.578 1953.58,368.532 1955.2,368.49 1956.82,368.45 1958.45,368.414 1960.07,368.38 1961.69,368.349 1963.32,368.321 
  1964.94,368.297 1966.56,368.275 1968.18,368.256 1969.81,368.24 1971.43,368.227 1973.05,368.217 1974.67,368.21 1976.3,368.206 1977.92,368.205 1979.54,368.206 
  1981.16,368.21 1982.79,368.218 1984.41,368.227 1986.03,368.24 1987.66,368.255 1989.28,368.273 1990.9,368.293 1992.52,368.316 1994.15,368.342 1995.77,368.37 
  1997.39,368.4 1999.01,368.432 2000.64,368.467 2002.26,368.504 2003.88,368.543 2005.5,368.584 2007.13,368.628 2008.75,368.673 2010.37,368.72 2012,368.768 
  2013.62,368.819 2015.24,368.871 2016.86,368.925 2018.49,368.98 2020.11,369.037 2021.73,369.095 2023.35,369.154 2024.98,369.214 2026.6,369.276 2028.22,369.338 
  2029.84,369.402 2031.47,369.466 2033.09,369.531 2034.71,369.597 2036.34,369.664 2037.96,369.731 2039.58,369.798 2041.2,369.866 2042.83,369.934 2044.45,370.003 
  2046.07,370.071 2047.69,370.14 2049.32,370.209 2050.94,370.277 2052.56,370.345 2054.18,370.414 2055.81,370.481 2057.43,370.549 2059.05,370.616 2060.68,370.682 
  2062.3,370.748 2063.92,370.813 2065.54,370.878 2067.17,370.941 2068.79,371.004 2070.41,371.066 2072.03,371.127 2073.66,371.187 2075.28,371.245 2076.9,371.303 
  2078.52,371.359 2080.15,371.414 2081.77,371.468 2083.39,371.521 2085.02,371.572 2086.64,371.621 2088.26,371.669 2089.88,371.716 2091.51,371.761 2093.13,371.804 
  2094.75,371.846 2096.37,371.886 2098,371.925 2099.62,371.961 2101.24,371.996 2102.86,372.029 2104.49,372.061 2106.11,372.091 2107.73,372.118 2109.36,372.144 
  2110.98,372.168 2112.6,372.191 2114.22,372.211 2115.85,372.23 2117.47,372.246 2119.09,372.261 2120.71,372.274 2122.34,372.285 2123.96,372.294 2125.58,372.302 
  2127.2,372.307 2128.83,372.311 2130.45,372.313 2132.07,372.313 2133.7,372.311 2135.32,372.308 2136.94,372.303 2138.56,372.296 2140.19,372.287 2141.81,372.277 
  2143.43,372.265 2145.05,372.252 2146.68,372.237 2148.3,372.22 2149.92,372.202 2151.54,372.182 2153.17,372.161 2154.79,372.139 2156.41,372.115 2158.04,372.09 
  2159.66,372.063 2161.28,372.036 2162.9,372.007 2164.53,371.977 2166.15,371.946 2167.77,371.914 2169.39,371.88 2171.02,371.846 2172.64,371.811 2174.26,371.775 
  2175.88,371.738 2177.51,371.701 2179.13,371.662 2180.75,371.623 2182.38,371.584 2184,371.544 2185.62,371.503 2187.24,371.462 2188.87,371.42 2190.49,371.378 
  2192.11,371.336 2193.73,371.293 2195.36,371.251 2196.98,371.208 2198.6,371.165 2200.22,371.121 2201.85,371.078 2203.47,371.035 2205.09,370.992 2206.72,370.949 
  2208.34,370.906 2209.96,370.864 2211.58,370.822 2213.21,370.78 2214.83,370.738 2216.45,370.697 2218.07,370.656 2219.7,370.615 2221.32,370.576 2222.94,370.536 
  2224.56,370.498 2226.19,370.46 2227.81,370.422 2229.43,370.386 2231.06,370.35 2232.68,370.315 2234.3,370.28 2235.92,370.247 2237.55,370.214 2239.17,370.183 
  2240.79,370.152 2242.41,370.122 2244.04,370.093 2245.66,370.065 2247.28,370.038 2248.91,370.012 2250.53,369.988 2252.15,369.964 2253.77,369.941 2255.4,369.92 
  2257.02,369.899 2258.64,369.88 2260.26,369.862 2261.89,369.845 2263.51,369.829 2265.13,369.814 2266.75,369.801 2268.38,369.788 2270,369.777 2271.62,369.767 
  2273.25,369.758 2274.87,369.751 2276.49,369.744 2278.11,369.739 2279.74,369.735 2281.36,369.732 2282.98,369.73 2284.6,369.729 2286.23,369.729 2287.85,369.731 
  2289.47,369.733 2291.09,369.737 2292.72,369.742 2294.34,369.748 2295.96,369.755 2297.59,369.762 2299.21,369.771 2300.83,369.781 2302.45,369.792 2304.08,369.804 
  2305.7,369.817 2307.32,369.83 2308.94,369.845 2310.57,369.86 2312.19,369.876 2313.81,369.893 2315.43,369.911 2317.06,369.929 2318.68,369.948 2320.3,369.968 
  2321.93,369.989 2323.55,370.01 2325.17,370.032 2326.79,370.054 2328.42,370.077 2330.04,370.1 2331.66,370.124 2333.28,370.148 2334.91,370.173 2336.53,370.198 
  2338.15,370.223 2339.77,370.249 2341.4,370.275 2343.02,370.301 2344.64,370.328 2346.27,370.355 2347.89,370.381 2349.51,370.408 2351.13,370.435 2352.76,370.463 
  
  "/>
<polyline clip-path="url(#clip642)" style="stroke:#ff0000; stroke-width:10; stroke-opacity:1; fill:none" points="
  163.774,1384.24 165.397,1383.93 167.019,1383.69 168.642,1383.5 170.265,1383.35 171.887,1383.23 173.51,1383.14 175.133,1383.07 176.755,1383.01 178.378,1382.96 
  180.001,1382.93 181.623,1382.9 183.246,1382.88 184.869,1382.86 186.492,1382.84 188.114,1382.83 189.737,1382.82 191.36,1382.82 192.982,1382.81 194.605,1382.81 
  196.228,1382.8 197.85,1382.8 199.473,1382.8 201.096,1382.8 202.718,1382.8 204.341,1382.8 205.964,1382.8 207.586,1382.79 209.209,1382.79 210.832,1382.79 
  212.454,1382.79 214.077,1382.79 215.7,1382.79 217.322,1382.79 218.945,1382.79 220.568,1382.79 222.19,1382.79 223.813,1382.79 225.436,1382.79 227.058,1382.79 
  228.681,1382.79 230.304,1382.79 231.926,1382.79 233.549,1382.79 235.172,1382.79 236.794,1382.79 238.417,1382.79 240.04,1382.79 241.662,1382.79 243.285,1382.79 
  244.908,1382.79 246.53,1382.79 248.153,1382.79 249.776,1382.79 251.398,1382.79 253.021,1382.79 254.644,1382.79 256.266,1382.79 257.889,1382.79 259.512,1382.79 
  261.134,1382.79 262.757,1382.79 264.38,1382.79 266.002,1382.79 267.625,1382.79 269.248,1382.79 270.87,1382.79 272.493,1382.79 274.116,1382.79 275.738,1382.79 
  277.361,1382.79 278.984,1382.79 280.606,1382.79 282.229,1382.79 283.852,1382.79 285.474,1382.79 287.097,1382.79 288.72,1382.79 290.342,1382.79 291.965,1382.79 
  293.588,1382.79 295.21,1382.79 296.833,1382.79 298.456,1382.79 300.078,1382.79 301.701,1382.79 303.324,1382.79 304.946,1382.79 306.569,1382.79 308.192,1382.79 
  309.814,1382.79 311.437,1382.79 313.06,1382.79 314.682,1382.79 316.305,1382.79 317.928,1382.79 319.55,1382.79 321.173,1382.79 322.796,1382.79 324.418,1382.79 
  326.041,1382.79 327.664,1382.79 329.286,1382.79 330.909,1382.79 332.532,1382.79 334.154,1382.79 335.777,1382.79 337.4,1382.79 339.022,1382.79 340.645,1382.79 
  342.268,1382.79 343.89,1382.79 345.513,1382.79 347.136,1382.79 348.758,1382.79 350.381,1382.79 352.004,1382.79 353.627,1382.79 355.249,1382.79 356.872,1382.79 
  358.495,1382.79 360.117,1382.79 361.74,1382.79 363.363,1382.79 364.985,1382.79 366.608,1382.79 368.231,1382.79 369.853,1382.79 371.476,1382.79 373.099,1382.79 
  374.721,1382.79 376.344,1382.79 377.967,1382.79 379.589,1382.79 381.212,1382.79 382.835,1382.79 384.457,1382.79 386.08,1382.79 387.703,1382.79 389.325,1382.79 
  390.948,1382.79 392.571,1382.79 394.193,1382.79 395.816,1382.79 397.439,1382.79 399.061,1382.79 400.684,1382.79 402.307,1382.79 403.929,1382.79 405.552,1382.79 
  407.175,1382.79 408.797,1382.79 410.42,1382.79 412.043,1382.79 413.665,1382.79 415.288,1382.79 416.911,1382.79 418.533,1382.79 420.156,1382.79 421.779,1382.79 
  423.401,1382.79 425.024,1382.79 426.647,1382.79 428.269,1382.79 429.892,1382.79 431.515,1382.79 433.137,1382.79 434.76,1382.79 436.383,1382.79 438.005,1382.79 
  439.628,1382.79 441.251,1382.79 442.873,1382.79 444.496,1382.79 446.119,1382.79 447.741,1382.79 449.364,1382.79 450.987,1382.79 452.609,1382.79 454.232,1382.79 
  455.855,1382.79 457.477,1382.79 459.1,1382.79 460.723,1382.79 462.345,1382.79 463.968,1382.79 465.591,1382.79 467.213,1382.79 468.836,1382.79 470.459,1382.79 
  472.081,1382.79 473.704,1382.79 475.327,1382.79 476.949,1382.79 478.572,1382.79 480.195,1382.79 481.817,1382.79 483.44,1382.79 485.063,1382.79 486.685,1382.79 
  488.308,1382.79 489.931,1382.79 491.553,1382.79 493.176,1382.79 494.799,1382.79 496.421,1382.79 498.044,1382.79 499.667,1382.79 501.289,1382.79 502.912,1382.79 
  504.535,1382.79 506.157,1382.79 507.78,1382.79 509.403,1382.79 511.025,1382.79 512.648,1382.79 514.271,1382.79 515.894,1382.79 517.516,1382.79 519.139,1382.79 
  520.762,1382.79 522.384,1382.79 524.007,1382.79 525.63,1382.79 527.252,1382.79 528.875,1382.79 530.498,1382.79 532.12,1382.79 533.743,1382.79 535.366,1382.79 
  536.988,1382.79 538.611,1382.79 540.234,1382.79 541.856,1382.79 543.479,1382.79 545.102,1382.79 546.724,1382.79 548.347,1382.79 549.97,1382.79 551.592,1382.79 
  553.215,1382.79 554.838,1382.79 556.46,1382.79 558.083,1382.79 559.706,1382.79 561.328,1382.79 562.951,1382.79 564.574,1382.79 566.196,1382.79 567.819,1382.79 
  569.442,1382.79 571.064,1382.79 572.687,1382.79 574.31,1382.79 575.932,1382.79 577.555,1382.79 579.178,1382.79 580.8,1382.79 582.423,1382.79 584.046,1382.79 
  585.668,1382.79 587.291,1382.79 588.914,1382.79 590.536,1382.79 592.159,1382.79 593.782,1382.79 595.404,1382.79 597.027,1382.79 598.65,1382.79 600.272,1382.79 
  601.895,1382.79 603.518,1382.79 605.14,1382.79 606.763,1382.79 608.386,1382.79 610.008,1382.79 611.631,1382.79 613.254,1382.79 614.876,1382.79 616.499,1382.79 
  618.122,1382.79 619.744,1382.79 621.367,1382.79 622.99,1382.79 624.612,1382.79 626.235,1382.79 627.858,1382.79 629.48,1382.79 631.103,1382.79 632.726,1382.79 
  634.348,1382.79 635.971,1382.79 637.594,1382.79 639.216,1382.79 640.839,1382.79 642.462,1382.79 644.084,1382.79 645.707,1382.79 647.33,1382.79 648.952,1382.79 
  650.575,1382.79 652.198,1382.79 653.82,1382.79 655.443,1382.79 657.066,1382.79 658.688,1382.79 660.311,1382.79 661.934,1382.79 663.556,1382.79 665.179,1382.79 
  666.802,1382.79 668.424,1382.79 670.047,1382.79 671.67,1382.79 673.292,1382.79 674.915,1382.79 676.538,1382.79 678.161,1382.79 679.783,1382.79 681.406,1382.79 
  683.029,1382.79 684.651,1382.79 686.274,1382.79 687.897,1382.79 689.519,1382.79 691.142,1382.79 692.765,1382.79 694.387,1382.79 696.01,1382.79 697.633,1382.79 
  699.255,1382.79 700.878,1382.79 702.501,1382.79 704.123,1382.79 705.746,1382.79 707.369,1382.79 708.991,1382.79 710.614,1382.79 712.237,1382.79 713.859,1382.79 
  715.482,1382.79 717.105,1382.79 718.727,1382.79 720.35,1382.79 721.973,1382.79 723.595,1382.79 725.218,1382.79 726.841,1382.79 728.463,1382.79 730.086,1382.79 
  731.709,1382.79 733.331,1382.79 734.954,1382.79 736.577,1382.79 738.199,1382.79 739.822,1382.79 741.445,1382.79 743.067,1382.79 744.69,1382.79 746.313,1382.79 
  747.935,1382.79 749.558,1382.79 751.181,1382.79 752.803,1382.79 754.426,1382.79 756.049,1382.79 757.671,1382.79 759.294,1382.79 760.917,1382.79 762.539,1382.79 
  764.162,1382.79 765.785,1382.79 767.407,1382.79 769.03,1382.79 770.653,1382.79 772.275,1382.79 773.898,1382.79 775.521,1382.79 777.143,1382.79 778.766,1382.79 
  780.389,1382.79 782.011,1382.79 783.634,1382.79 785.257,1382.79 786.879,1382.79 788.502,1382.79 790.125,1382.79 791.747,1382.79 793.37,1382.79 794.993,1382.79 
  796.615,1382.79 798.238,1382.79 799.861,1382.79 801.483,1382.79 803.106,1382.79 804.729,1382.79 806.351,1382.79 807.974,1382.79 809.597,1382.79 811.219,1382.79 
  812.842,1382.79 814.465,1382.79 816.087,1382.79 817.71,1382.79 819.333,1382.79 820.955,1382.79 822.578,1382.79 824.201,1382.79 825.823,1382.79 827.446,1382.79 
  829.069,1382.79 830.691,1382.79 832.314,1382.79 833.937,1382.79 835.559,1382.79 837.182,1382.79 838.805,1382.79 840.427,1382.79 842.05,1382.79 843.673,1382.79 
  845.296,1382.79 846.918,1382.79 848.541,1382.79 850.164,1382.79 851.786,1382.79 853.409,1382.79 855.032,1382.79 856.654,1382.79 858.277,1382.79 859.9,1382.79 
  861.522,1382.79 863.145,1382.79 864.768,1382.79 866.39,1382.79 868.013,1382.79 869.636,1382.79 871.258,1382.79 872.881,1382.79 874.504,1382.79 876.126,1382.79 
  877.749,1382.79 879.372,1382.79 880.994,1382.79 882.617,1382.79 884.24,1382.79 885.862,1382.79 887.485,1382.79 889.108,1382.79 890.73,1382.79 892.353,1382.79 
  893.976,1382.79 895.598,1382.79 897.221,1382.79 898.844,1382.79 900.466,1382.79 902.089,1382.79 903.712,1382.79 905.334,1382.79 906.957,1382.79 908.58,1382.79 
  910.202,1382.79 911.825,1382.79 913.448,1382.79 915.07,1382.79 916.693,1382.79 918.316,1382.79 919.938,1382.79 921.561,1382.79 923.184,1382.79 924.806,1382.79 
  926.429,1382.79 928.052,1382.79 929.674,1382.79 931.297,1382.79 932.92,1382.79 934.542,1382.79 936.165,1382.79 937.788,1382.79 939.41,1382.79 941.033,1382.79 
  942.656,1382.79 944.278,1382.79 945.901,1382.79 947.524,1382.79 949.146,1382.79 950.769,1382.79 952.392,1382.79 954.014,1382.79 955.637,1382.79 957.26,1382.79 
  958.882,1382.79 960.505,1382.79 962.128,1382.79 963.75,1382.79 965.373,1382.79 966.996,1382.79 968.618,1382.79 970.241,1382.79 971.864,1382.79 973.486,1382.79 
  975.109,1382.79 976.732,1382.79 978.354,1382.79 979.977,1382.79 981.6,1382.79 983.222,1382.79 984.845,1382.79 986.468,1382.79 988.09,1382.79 989.713,1382.79 
  991.336,1382.79 992.958,1382.79 994.581,1382.79 996.204,1382.79 997.826,1382.79 999.449,1382.79 1001.07,1382.79 1002.69,1382.79 1004.32,1382.79 1005.94,1382.79 
  1007.56,1382.79 1009.19,1382.79 1010.81,1382.79 1012.43,1382.79 1014.05,1382.79 1015.68,1382.79 1017.3,1382.79 1018.92,1382.79 1020.54,1382.79 1022.17,1382.79 
  1023.79,1382.79 1025.41,1382.79 1027.03,1382.79 1028.66,1382.79 1030.28,1382.79 1031.9,1382.79 1033.53,1382.79 1035.15,1382.79 1036.77,1382.79 1038.39,1382.79 
  1040.02,1382.79 1041.64,1382.79 1043.26,1382.79 1044.88,1382.79 1046.51,1382.79 1048.13,1382.79 1049.75,1382.79 1051.37,1382.79 1053,1382.79 1054.62,1382.79 
  1056.24,1382.79 1057.87,1382.79 1059.49,1382.79 1061.11,1382.79 1062.73,1382.79 1064.36,1382.79 1065.98,1382.79 1067.6,1382.79 1069.22,1382.79 1070.85,1382.79 
  1072.47,1382.79 1074.09,1382.79 1075.71,1382.79 1077.34,1382.79 1078.96,1382.79 1080.58,1382.79 1082.21,1382.79 1083.83,1382.79 1085.45,1382.79 1087.07,1382.79 
  1088.7,1382.79 1090.32,1382.79 1091.94,1382.79 1093.56,1382.79 1095.19,1382.79 1096.81,1382.79 1098.43,1382.79 1100.05,1382.79 1101.68,1382.79 1103.3,1382.79 
  1104.92,1382.79 1106.55,1382.79 1108.17,1382.79 1109.79,1382.79 1111.41,1382.79 1113.04,1382.79 1114.66,1382.79 1116.28,1382.79 1117.9,1382.79 1119.53,1382.79 
  1121.15,1382.79 1122.77,1382.79 1124.39,1382.79 1126.02,1382.79 1127.64,1382.79 1129.26,1382.79 1130.89,1382.79 1132.51,1382.79 1134.13,1382.79 1135.75,1382.79 
  1137.38,1382.79 1139,1382.79 1140.62,1382.79 1142.24,1382.79 1143.87,1382.79 1145.49,1382.79 1147.11,1382.79 1148.73,1382.79 1150.36,1382.79 1151.98,1382.79 
  1153.6,1382.79 1155.23,1382.79 1156.85,1382.79 1158.47,1382.79 1160.09,1382.79 1161.72,1382.79 1163.34,1382.79 1164.96,1382.79 1166.58,1382.79 1168.21,1382.79 
  1169.83,1382.79 1171.45,1382.79 1173.07,1382.79 1174.7,1382.79 1176.32,1382.79 1177.94,1382.79 1179.57,1382.79 1181.19,1382.79 1182.81,1382.79 1184.43,1382.79 
  1186.06,1382.79 1187.68,1382.79 1189.3,1382.79 1190.92,1382.79 1192.55,1382.79 1194.17,1382.79 1195.79,1382.79 1197.41,1382.79 1199.04,1382.79 1200.66,1382.79 
  1202.28,1382.79 1203.91,1382.79 1205.53,1382.79 1207.15,1382.79 1208.77,1382.79 1210.4,1382.79 1212.02,1382.79 1213.64,1382.79 1215.26,1382.79 1216.89,1382.79 
  1218.51,1382.79 1220.13,1382.79 1221.75,1382.79 1223.38,1382.79 1225,1382.79 1226.62,1382.79 1228.25,1382.79 1229.87,1382.79 1231.49,1382.79 1233.11,1382.79 
  1234.74,1382.79 1236.36,1382.79 1237.98,1382.79 1239.6,1382.79 1241.23,1382.79 1242.85,1382.79 1244.47,1382.79 1246.09,1382.79 1247.72,1382.79 1249.34,1382.79 
  1250.96,1382.79 1252.59,1382.79 1254.21,1382.79 1255.83,1382.79 1257.45,1382.79 1259.08,1382.79 1260.7,1382.79 1262.32,1382.79 1263.94,1382.79 1265.57,1382.79 
  1267.19,1382.79 1268.81,1382.79 1270.44,1382.79 1272.06,1382.79 1273.68,1382.79 1275.3,1382.79 1276.93,1382.79 1278.55,1382.79 1280.17,1382.79 1281.79,1382.79 
  1283.42,1382.79 1285.04,1382.79 1286.66,1382.79 1288.28,1382.79 1289.91,1382.79 1291.53,1382.79 1293.15,1382.79 1294.78,1382.79 1296.4,1382.79 1298.02,1382.79 
  1299.64,1382.79 1301.27,1382.79 1302.89,1382.79 1304.51,1382.79 1306.13,1382.79 1307.76,1382.79 1309.38,1382.79 1311,1382.79 1312.62,1382.79 1314.25,1382.79 
  1315.87,1382.79 1317.49,1382.79 1319.12,1382.79 1320.74,1382.79 1322.36,1382.79 1323.98,1382.79 1325.61,1382.79 1327.23,1382.79 1328.85,1382.79 1330.47,1382.79 
  1332.1,1382.79 1333.72,1382.79 1335.34,1382.79 1336.96,1382.79 1338.59,1382.79 1340.21,1382.79 1341.83,1382.79 1343.46,1382.79 1345.08,1382.79 1346.7,1382.79 
  1348.32,1382.79 1349.95,1382.79 1351.57,1382.79 1353.19,1382.79 1354.81,1382.79 1356.44,1382.79 1358.06,1382.79 1359.68,1382.79 1361.3,1382.79 1362.93,1382.79 
  1364.55,1382.79 1366.17,1382.79 1367.8,1382.79 1369.42,1382.79 1371.04,1382.79 1372.66,1382.79 1374.29,1382.79 1375.91,1382.79 1377.53,1382.79 1379.15,1382.79 
  1380.78,1382.79 1382.4,1382.79 1384.02,1382.79 1385.64,1382.79 1387.27,1382.79 1388.89,1382.79 1390.51,1382.79 1392.14,1382.79 1393.76,1382.79 1395.38,1382.79 
  1397,1382.79 1398.63,1382.79 1400.25,1382.79 1401.87,1382.79 1403.49,1382.79 1405.12,1382.79 1406.74,1382.79 1408.36,1382.79 1409.98,1382.79 1411.61,1382.79 
  1413.23,1382.79 1414.85,1382.79 1416.48,1382.79 1418.1,1382.79 1419.72,1382.79 1421.34,1382.79 1422.97,1382.79 1424.59,1382.79 1426.21,1382.79 1427.83,1382.79 
  1429.46,1382.79 1431.08,1382.79 1432.7,1382.79 1434.32,1382.79 1435.95,1382.79 1437.57,1382.79 1439.19,1382.79 1440.82,1382.79 1442.44,1382.79 1444.06,1382.79 
  1445.68,1382.79 1447.31,1382.79 1448.93,1382.79 1450.55,1382.79 1452.17,1382.79 1453.8,1382.79 1455.42,1382.79 1457.04,1382.79 1458.66,1382.79 1460.29,1382.79 
  1461.91,1382.79 1463.53,1382.79 1465.16,1382.79 1466.78,1382.79 1468.4,1382.79 1470.02,1382.79 1471.65,1382.79 1473.27,1382.79 1474.89,1382.79 1476.51,1382.79 
  1478.14,1382.79 1479.76,1382.79 1481.38,1382.79 1483,1382.79 1484.63,1382.79 1486.25,1382.79 1487.87,1382.79 1489.5,1382.79 1491.12,1382.79 1492.74,1382.79 
  1494.36,1382.79 1495.99,1382.79 1497.61,1382.79 1499.23,1382.79 1500.85,1382.79 1502.48,1382.79 1504.1,1382.79 1505.72,1382.79 1507.34,1382.79 1508.97,1382.79 
  1510.59,1382.79 1512.21,1382.79 1513.84,1382.79 1515.46,1382.79 1517.08,1382.79 1518.7,1382.79 1520.33,1382.79 1521.95,1382.79 1523.57,1382.79 1525.19,1382.79 
  1526.82,1382.79 1528.44,1382.79 1530.06,1382.79 1531.68,1382.79 1533.31,1382.79 1534.93,1382.79 1536.55,1382.79 1538.18,1382.79 1539.8,1382.79 1541.42,1382.79 
  1543.04,1382.79 1544.67,1382.79 1546.29,1382.79 1547.91,1382.79 1549.53,1382.79 1551.16,1382.79 1552.78,1382.79 1554.4,1382.79 1556.02,1382.79 1557.65,1382.79 
  1559.27,1382.79 1560.89,1382.79 1562.52,1382.79 1564.14,1382.79 1565.76,1382.79 1567.38,1382.79 1569.01,1382.79 1570.63,1382.79 1572.25,1382.79 1573.87,1382.79 
  1575.5,1382.79 1577.12,1382.79 1578.74,1382.79 1580.37,1382.79 1581.99,1382.79 1583.61,1382.79 1585.23,1382.79 1586.86,1382.79 1588.48,1382.79 1590.1,1382.79 
  1591.72,1382.79 1593.35,1382.79 1594.97,1382.79 1596.59,1382.79 1598.21,1382.79 1599.84,1382.79 1601.46,1382.79 1603.08,1382.79 1604.71,1382.79 1606.33,1382.79 
  1607.95,1382.79 1609.57,1382.79 1611.2,1382.79 1612.82,1382.79 1614.44,1382.79 1616.06,1382.79 1617.69,1382.79 1619.31,1382.79 1620.93,1382.79 1622.55,1382.79 
  1624.18,1382.79 1625.8,1382.79 1627.42,1382.79 1629.05,1382.79 1630.67,1382.79 1632.29,1382.79 1633.91,1382.79 1635.54,1382.79 1637.16,1382.79 1638.78,1382.79 
  1640.4,1382.79 1642.03,1382.79 1643.65,1382.79 1645.27,1382.79 1646.89,1382.79 1648.52,1382.79 1650.14,1382.79 1651.76,1382.79 1653.39,1382.79 1655.01,1382.79 
  1656.63,1382.79 1658.25,1382.79 1659.88,1382.79 1661.5,1382.79 1663.12,1382.79 1664.74,1382.79 1666.37,1382.79 1667.99,1382.79 1669.61,1382.79 1671.23,1382.79 
  1672.86,1382.79 1674.48,1382.79 1676.1,1382.79 1677.73,1382.79 1679.35,1382.79 1680.97,1382.79 1682.59,1382.79 1684.22,1382.79 1685.84,1382.79 1687.46,1382.79 
  1689.08,1382.79 1690.71,1382.79 1692.33,1382.79 1693.95,1382.79 1695.57,1382.79 1697.2,1382.79 1698.82,1382.79 1700.44,1382.79 1702.07,1382.79 1703.69,1382.79 
  1705.31,1382.79 1706.93,1382.79 1708.56,1382.79 1710.18,1382.79 1711.8,1382.79 1713.42,1382.79 1715.05,1382.79 1716.67,1382.79 1718.29,1382.79 1719.91,1382.79 
  1721.54,1382.79 1723.16,1382.79 1724.78,1382.79 1726.41,1382.79 1728.03,1382.79 1729.65,1382.79 1731.27,1382.79 1732.9,1382.79 1734.52,1382.79 1736.14,1382.79 
  1737.76,1382.79 1739.39,1382.79 1741.01,1382.79 1742.63,1382.79 1744.25,1382.79 1745.88,1382.79 1747.5,1382.79 1749.12,1382.79 1750.75,1382.79 1752.37,1382.79 
  1753.99,1382.79 1755.61,1382.79 1757.24,1382.79 1758.86,1382.79 1760.48,1382.79 1762.1,1382.79 1763.73,1382.79 1765.35,1382.79 1766.97,1382.79 1768.59,1382.79 
  1770.22,1382.79 1771.84,1382.79 1773.46,1382.79 1775.09,1382.79 1776.71,1382.79 1778.33,1382.79 1779.95,1382.79 1781.58,1382.79 1783.2,1382.79 1784.82,1382.79 
  1786.44,1382.79 1788.07,1382.79 1789.69,1382.79 1791.31,1382.79 1792.93,1382.79 1794.56,1382.79 1796.18,1382.79 1797.8,1382.79 1799.43,1382.79 1801.05,1382.79 
  1802.67,1382.79 1804.29,1382.79 1805.92,1382.79 1807.54,1382.79 1809.16,1382.79 1810.78,1382.79 1812.41,1382.79 1814.03,1382.79 1815.65,1382.79 1817.27,1382.79 
  1818.9,1382.79 1820.52,1382.79 1822.14,1382.79 1823.77,1382.79 1825.39,1382.79 1827.01,1382.79 1828.63,1382.79 1830.26,1382.79 1831.88,1382.79 1833.5,1382.79 
  1835.12,1382.79 1836.75,1382.79 1838.37,1382.79 1839.99,1382.79 1841.61,1382.79 1843.24,1382.79 1844.86,1382.79 1846.48,1382.79 1848.11,1382.79 1849.73,1382.79 
  1851.35,1382.79 1852.97,1382.79 1854.6,1382.79 1856.22,1382.79 1857.84,1382.79 1859.46,1382.79 1861.09,1382.79 1862.71,1382.79 1864.33,1382.79 1865.95,1382.79 
  1867.58,1382.79 1869.2,1382.79 1870.82,1382.79 1872.45,1382.79 1874.07,1382.79 1875.69,1382.79 1877.31,1382.79 1878.94,1382.79 1880.56,1382.79 1882.18,1382.79 
  1883.8,1382.79 1885.43,1382.79 1887.05,1382.79 1888.67,1382.79 1890.29,1382.79 1891.92,1382.79 1893.54,1382.79 1895.16,1382.79 1896.79,1382.79 1898.41,1382.79 
  1900.03,1382.79 1901.65,1382.79 1903.28,1382.79 1904.9,1382.79 1906.52,1382.79 1908.14,1382.79 1909.77,1382.79 1911.39,1382.79 1913.01,1382.79 1914.64,1382.79 
  1916.26,1382.79 1917.88,1382.79 1919.5,1382.79 1921.13,1382.79 1922.75,1382.79 1924.37,1382.79 1925.99,1382.79 1927.62,1382.79 1929.24,1382.79 1930.86,1382.79 
  1932.48,1382.79 1934.11,1382.79 1935.73,1382.79 1937.35,1382.79 1938.98,1382.79 1940.6,1382.79 1942.22,1382.79 1943.84,1382.79 1945.47,1382.79 1947.09,1382.79 
  1948.71,1382.79 1950.33,1382.79 1951.96,1382.79 1953.58,1382.79 1955.2,1382.79 1956.82,1382.79 1958.45,1382.79 1960.07,1382.79 1961.69,1382.79 1963.32,1382.79 
  1964.94,1382.79 1966.56,1382.79 1968.18,1382.79 1969.81,1382.79 1971.43,1382.79 1973.05,1382.79 1974.67,1382.79 1976.3,1382.79 1977.92,1382.79 1979.54,1382.79 
  1981.16,1382.79 1982.79,1382.79 1984.41,1382.79 1986.03,1382.79 1987.66,1382.79 1989.28,1382.79 1990.9,1382.79 1992.52,1382.79 1994.15,1382.79 1995.77,1382.79 
  1997.39,1382.79 1999.01,1382.79 2000.64,1382.79 2002.26,1382.79 2003.88,1382.79 2005.5,1382.79 2007.13,1382.79 2008.75,1382.79 2010.37,1382.79 2012,1382.79 
  2013.62,1382.79 2015.24,1382.79 2016.86,1382.79 2018.49,1382.79 2020.11,1382.79 2021.73,1382.79 2023.35,1382.79 2024.98,1382.79 2026.6,1382.79 2028.22,1382.79 
  2029.84,1382.79 2031.47,1382.79 2033.09,1382.79 2034.71,1382.79 2036.34,1382.79 2037.96,1382.79 2039.58,1382.79 2041.2,1382.79 2042.83,1382.79 2044.45,1382.79 
  2046.07,1382.79 2047.69,1382.79 2049.32,1382.79 2050.94,1382.79 2052.56,1382.79 2054.18,1382.79 2055.81,1382.79 2057.43,1382.79 2059.05,1382.79 2060.68,1382.79 
  2062.3,1382.79 2063.92,1382.79 2065.54,1382.79 2067.17,1382.79 2068.79,1382.79 2070.41,1382.79 2072.03,1382.79 2073.66,1382.79 2075.28,1382.79 2076.9,1382.79 
  2078.52,1382.79 2080.15,1382.79 2081.77,1382.79 2083.39,1382.79 2085.02,1382.79 2086.64,1382.79 2088.26,1382.79 2089.88,1382.79 2091.51,1382.79 2093.13,1382.79 
  2094.75,1382.79 2096.37,1382.79 2098,1382.79 2099.62,1382.79 2101.24,1382.79 2102.86,1382.79 2104.49,1382.79 2106.11,1382.79 2107.73,1382.79 2109.36,1382.79 
  2110.98,1382.79 2112.6,1382.79 2114.22,1382.79 2115.85,1382.79 2117.47,1382.79 2119.09,1382.79 2120.71,1382.79 2122.34,1382.79 2123.96,1382.79 2125.58,1382.79 
  2127.2,1382.79 2128.83,1382.79 2130.45,1382.79 2132.07,1382.79 2133.7,1382.79 2135.32,1382.79 2136.94,1382.79 2138.56,1382.79 2140.19,1382.79 2141.81,1382.79 
  2143.43,1382.79 2145.05,1382.79 2146.68,1382.79 2148.3,1382.79 2149.92,1382.79 2151.54,1382.79 2153.17,1382.79 2154.79,1382.79 2156.41,1382.79 2158.04,1382.79 
  2159.66,1382.79 2161.28,1382.79 2162.9,1382.79 2164.53,1382.79 2166.15,1382.79 2167.77,1382.79 2169.39,1382.79 2171.02,1382.79 2172.64,1382.79 2174.26,1382.79 
  2175.88,1382.79 2177.51,1382.79 2179.13,1382.79 2180.75,1382.79 2182.38,1382.79 2184,1382.79 2185.62,1382.79 2187.24,1382.79 2188.87,1382.79 2190.49,1382.79 
  2192.11,1382.79 2193.73,1382.79 2195.36,1382.79 2196.98,1382.79 2198.6,1382.79 2200.22,1382.79 2201.85,1382.79 2203.47,1382.79 2205.09,1382.79 2206.72,1382.79 
  2208.34,1382.79 2209.96,1382.79 2211.58,1382.79 2213.21,1382.79 2214.83,1382.79 2216.45,1382.79 2218.07,1382.79 2219.7,1382.79 2221.32,1382.79 2222.94,1382.79 
  2224.56,1382.79 2226.19,1382.79 2227.81,1382.79 2229.43,1382.79 2231.06,1382.79 2232.68,1382.79 2234.3,1382.79 2235.92,1382.79 2237.55,1382.79 2239.17,1382.79 
  2240.79,1382.79 2242.41,1382.79 2244.04,1382.79 2245.66,1382.79 2247.28,1382.79 2248.91,1382.79 2250.53,1382.79 2252.15,1382.79 2253.77,1382.79 2255.4,1382.79 
  2257.02,1382.79 2258.64,1382.79 2260.26,1382.79 2261.89,1382.79 2263.51,1382.79 2265.13,1382.79 2266.75,1382.79 2268.38,1382.79 2270,1382.79 2271.62,1382.79 
  2273.25,1382.79 2274.87,1382.79 2276.49,1382.79 2278.11,1382.79 2279.74,1382.79 2281.36,1382.79 2282.98,1382.79 2284.6,1382.79 2286.23,1382.79 2287.85,1382.79 
  2289.47,1382.79 2291.09,1382.79 2292.72,1382.79 2294.34,1382.79 2295.96,1382.79 2297.59,1382.79 2299.21,1382.79 2300.83,1382.79 2302.45,1382.79 2304.08,1382.79 
  2305.7,1382.79 2307.32,1382.79 2308.94,1382.79 2310.57,1382.79 2312.19,1382.79 2313.81,1382.79 2315.43,1382.79 2317.06,1382.79 2318.68,1382.79 2320.3,1382.79 
  2321.93,1382.79 2323.55,1382.79 2325.17,1382.79 2326.79,1382.79 2328.42,1382.79 2330.04,1382.79 2331.66,1382.79 2333.28,1382.79 2334.91,1382.79 2336.53,1382.79 
  2338.15,1382.79 2339.77,1382.79 2341.4,1382.79 2343.02,1382.79 2344.64,1382.79 2346.27,1382.79 2347.89,1382.79 2349.51,1382.79 2351.13,1382.79 2352.76,1382.79 
  
  "/>
</svg>
